<svg width="342.04462435022214" height="475.3868443244374" xmlns="http://www.w3.org/2000/svg">
  <path d="M244.26037400639981,320.0 L244.26037400639981,270.0 L244.26037400639981,269.0 L244.24292159996253,268.0001523048436 L244.20802210326002,267.00076147782454 L244.1556861470171,266.0021319430699 L244.08592967327297,265.0045678928101 L243.99877393052532,264.0083731947184 L243.89424546725766,263.0138512993501 L243.7723761238525,262.02130514770874 L243.63320302289245,261.0310370789672 L243.4767685578522,260.04334873837206 L243.30312038018528,259.05854098535985 L243.11231138480872,258.0769138019122 L242.90439969399097,257.09876620117836 L242.67944863964712,256.12439613639316 L242.43752674404743,255.15410041011717 L242.17870769894492,254.1881745838281 L241.90307034312792,253.2269128878898 L241.61069863840518,252.27060813192674 L241.30168164403023,251.3195516156316 L240.9761134895731,250.37403304003226 L240.63409334624743,249.43434041924638 L240.27572539670211,248.50075999274918 L239.9011188032862,247.57357613818237 L239.51038767479693,246.65307128472995 L239.1036510317211,245.73952582708733 L238.68103276998042,244.83321804005067 L238.24266162319134,243.93442399375152 L237.7886711234518,243.04341746956314 L237.3191995606659,242.1604698767042 L236.83438994041958,241.2858501695648 L236.33438994041958,240.4198247657804 L235.81935186550953,239.56265746507825 L235.2894326012763,238.71460936892183 L234.74479356626128,237.8759388009764 L234.18560066279053,237.04690122842135 L233.6120242264395,236.22774918413236 L233.024238974147,235.4187321897574 L232.42242395099498,234.62009667971012 L231.8067624756693,233.8320859261034 L231.17744208461949,233.05493996464645 L230.53465447493295,232.28889552152748 L229.87859544594244,231.5341859413047 L229.20946483958357,230.79104111582728 L228.52746647952108,230.05968741420813 L227.83280810906209,229.34034761386948 L227.12570132787553,228.63324083268293 L226.4063615275369,227.93858246222393 L225.6750078259177,227.25658410216144 L224.9318630004403,226.58745349580258 L224.17715342021754,225.93139446681207 L223.41110897709856,225.28860685712553 L222.6339630156416,224.65928646607568 L221.84595226203487,224.04362499075006 L221.04731675198758,223.441809967598 L220.23829975761262,222.8540247153055 L219.41914771332364,222.28044827895448 L218.5901101407686,221.72125537548374 L217.75143957282316,221.1766163404687 L216.90339147666674,220.6466970762355 L216.04622417596462,220.13165900132546 L215.1801987721802,219.63165900132546 L214.3055790650408,219.1468493810791 L213.42263147218188,218.67737781829322 L212.53162494799352,218.2233873185537 L211.63283090169435,217.7850161717646 L210.72652311465768,217.3623979100239 L209.8129776570151,216.95566126694808 L208.89247280356264,216.5649301384588 L207.96528894899586,216.19032354504293 L207.03170852249866,215.83195559549762 L206.09201590171276,215.48993545217195 L205.14649732611343,215.16436729771482 L204.19544080981828,214.85535030333983 L203.23913605385525,214.56297859861712 L202.27787435791691,214.2873412428001 L201.31194853162788,214.02852219769755 L200.34165280535186,213.7866003020979 L199.36728274056662,213.56164924775402 L198.38913513983283,213.35373755693632 L197.40750795638516,213.16292856155974 L196.42270020337295,212.98928038389283 L195.43501186277783,212.83284591885257 L194.44474379403624,212.6936728178925 L193.45219764239494,212.57180347448735 L192.45767574702666,212.46727501121973 L191.4614810489349,212.38011926847207 L190.46391699867507,212.31036279472795 L189.4652874639205,212.25802683848502 L188.46589663690142,212.22312734178246 L187.46604894174502,212.2056749353452 L186.46604894174502,212.2056749353452 L185.46620124658864,212.22312734178246 L184.46681041956953,212.25802683848502 L183.46818088481496,212.31036279472795 L182.47061683455513,212.38011926847207 L181.47442213646337,212.46727501121973 L180.47990024109512,212.57180347448735 L179.4873540894538,212.6936728178925 L178.49708602071223,212.83284591885257 L177.50939768011708,212.98928038389283 L176.52458992710487,213.16292856155974 L175.5429627436572,213.35373755693632 L174.5648151429234,213.56164924775402 L173.59044507813815,213.7866003020979 L172.62014935186215,214.02852219769755 L171.65422352557312,214.2873412428001 L170.69296182963478,214.56297859861712 L169.73665707367175,214.85535030333983 L168.7856005573766,215.16436729771482 L167.84008198177727,215.48993545217195 L166.90038936099137,215.83195559549762 L165.96680893449417,216.19032354504293 L165.03962507992736,216.5649301384588 L164.11912022647493,216.95566126694808 L163.20557476883232,217.3623979100239 L162.29926698179568,217.7850161717646 L161.4004729354965,218.2233873185537 L160.50946641130815,218.67737781829322 L159.6265188184492,219.1468493810791 L158.7518991113098,219.63165900132546 L157.88587370752538,220.13165900132546 L157.02870640682326,220.6466970762355 L156.18065831066684,221.1766163404687 L155.34198774272141,221.72125537548374 L154.51295017016636,222.28044827895448 L153.69379812587738,222.8540247153055 L152.88478113150242,223.441809967598 L152.08614562145513,224.04362499075006 L151.2981348678484,224.65928646607568 L150.52098890639144,225.28860685712553 L149.75494446327247,225.93139446681207 L149.0002348830497,226.58745349580258 L148.2570900575723,227.25658410216144 L147.52573635595314,227.93858246222393 L146.80639655561447,228.63324083268293 L146.09928977442792,229.34034761386948 L145.40463140396895,230.05968741420813 L144.72263304390646,230.79104111582728 L144.0535024375476,231.5341859413047 L143.39744340855708,232.28889552152748 L142.75465579887054,233.05493996464645 L142.12533540782067,233.8320859261034 L141.50967393249505,234.62009667971012 L140.907858909343,235.4187321897574 L140.3200736570505,236.22774918413236 L139.74649722069947,237.04690122842135 L139.18730431722872,237.8759388009764 L138.6426652822137,238.71460936892183 L138.1127460179805,239.56265746507825 L137.59770794307045,240.4198247657804 L137.09770794307045,241.2858501695648 L136.6128983228241,242.1604698767042 L136.1434267600382,243.04341746956314 L135.6894362602987,243.93442399375152 L135.25106511350958,244.83321804005067 L134.8284468517689,245.73952582708733 L134.4217102086931,246.65307128472995 L134.03097908020382,247.57357613818237 L133.65637248678792,248.50075999274918 L133.2980045372426,249.43434041924638 L132.95598439391694,250.37403304003226 L132.63041623945978,251.3195516156316 L132.32139924508482,252.27060813192674 L132.0290275403621,253.2269128878898 L131.75339018454508,254.1881745838281 L131.49457113944257,255.15410041011717 L131.25264924384288,256.12439613639316 L131.02769818949903,257.09876620117836 L130.81978649868125,258.0769138019122 L130.62897750330472,259.05854098535985 L130.4553293256378,260.04334873837206 L130.29889486059756,261.0310370789672 L130.15972175963748,262.02130514770874 L130.03785241623234,263.0138512993501 L129.93332395296468,264.0083731947184 L129.84616821021703,265.0045678928101 L129.7764117364729,266.0021319430699 L129.72407578022995,267.00076147782454 L129.68917628352744,268.0001523048436 L129.6717238770902,269.0 L129.6717238770902,270.0 L129.65427147065287,270.9998476951564 L129.61937197395036,271.99923852217546 L129.56703601770744,272.9978680569301 L129.49727954396332,273.9954321071899 L129.41012380121566,274.9916268052816 L129.305595337948,275.9861487006499 L129.18372599454284,276.97869485229126 L129.0445528935828,277.9689629210328 L128.88811842854255,278.95665126162794 L128.71447025087562,279.94145901464015 L128.52366125549906,280.92308619808784 L128.3157495646813,281.90123379882164 L128.09079851033744,282.87560386360684 L127.84887661473778,283.84589958988283 L127.59005756963525,284.8118254161719 L127.31442021381825,285.77308711211026 L127.02204850909551,286.72939186807326 L126.71303151472057,287.68044838436845 L126.38746336026341,288.62596695996774 L126.04544321693774,289.5656595807536 L125.68707526739244,290.4992400072508 L125.31246867397653,291.4264238618176 L124.92173754548725,292.3469287152701 L124.51500090241144,293.26047417291267 L124.09238264067075,294.16678195994933 L123.65401149388167,295.0655760062485 L123.20002099414212,295.9565825304369 L122.73054943135624,296.8395301232958 L122.2457398111099,297.7141498304352 L121.7457398111099,298.5801752342196 L121.23070173619985,299.43734253492175 L120.70078247196665,300.28539063107814 L120.15614343695162,301.1240611990236 L119.59695053348088,301.95309877157865 L119.02337409712983,302.7722508158676 L118.43558884483735,303.5812678102426 L117.83377382168531,304.3799033202898 L117.21811234635966,305.16791407389655 L116.58879195530982,305.94506003535355 L115.94600434562327,306.7111044784725 L115.28994531663275,307.4658140586953 L114.62081471027389,308.2089588841727 L113.9388163502114,308.94031258579184 L113.2441579797524,309.6596523861305 L112.53705119856585,310.366759167317 L111.8177113982272,311.06141753777604 L111.08635769660802,311.74341589783853 L110.34321287113062,312.4125465041974 L109.58850329090785,313.0686055331879 L108.82245884778888,313.71139314287444 L108.04531288633191,314.34071353392426 L107.25730213272519,314.95637500924994 L106.4586666226779,315.55819003240197 L105.64964962830294,316.1459752846945 L104.83049758401395,316.7195517210455 L104.0014600114589,317.27874462451626 L103.16278944351347,317.82338365953126 L102.31474134735706,318.3533029237645 L101.45757404665494,318.8683409986745 L100.59154864287049,319.3683409986745 L99.71692893573109,319.8531506189209 L98.83398134287216,320.3226221817068 L97.94297481868381,320.7766126814463 L97.04418077238464,321.2149838282354 L96.137872985348,321.6376020899761 L95.22432752770538,322.04433873305186 L94.30382267425296,322.43506986154114 L93.37663881968618,322.80967645495707 L92.44305839318898,323.1680444045024 L91.50336577240307,323.51006454782805 L90.55784719680375,323.83563270228524 L89.6067906805086,324.14464969666017 L88.65048592454556,324.43702140138294 L87.68922422860723,324.7126587571999 L86.72329840231816,324.9714778023024 L85.75300267604217,325.2133996979021 L84.77863261125694,325.4383507522459 L83.80048501052315,325.64626244306373 L82.81885782707548,325.83707143844026 L81.83405007406327,326.01071961610717 L80.84636173346814,326.1671540811474 L79.85609366472659,326.30632718210745 L78.86354751308525,326.4281965255126 L77.86902561771697,326.5327249887803 L76.87283091962522,326.6198807315279 L75.87526686936539,326.6896372052721 L74.87663733461082,326.74197316151503 L73.87724650759174,326.7768726582175 L72.87739881243533,326.7943250646548 L71.87739881243533,326.7943250646548 L70.87755111727893,326.7768726582175 L69.87816029025984,326.74197316151503 L68.87953075550527,326.68963720527205 L67.88196670524545,326.6198807315279 L66.88577200715369,326.5327249887803 L65.89125011178541,326.4281965255126 L64.89870396014408,326.30632718210745 L63.90843589140252,326.1671540811474 L62.92074755080739,326.01071961610717 L61.935939797795186,325.83707143844026 L60.954312614347515,325.64626244306373 L59.97616501361372,325.4383507522459 L59.00179494882849,325.2133996979021 L58.0314992225525,324.9714778023024 L57.06557339626343,324.7126587571999 L56.1043117003251,324.43702140138294 L55.148006944362066,324.14464969666017 L54.19695042806691,323.83563270228524 L53.25143185246759,323.51006454782805 L52.311739231681685,323.1680444045024 L51.37815880518448,322.80967645495707 L50.450974950617706,322.43506986154114 L49.53047009716528,322.04433873305186 L48.616924639522665,321.6376020899761 L47.71061685248603,321.2149838282354 L46.81182280618685,320.7766126814463 L45.9208162819985,320.3226221817068 L45.03786868913957,319.8531506189209 L44.16324898200017,319.3683409986745 L43.29722357821572,318.8683409986745 L42.440056277513605,318.3533029237645 L41.59200818135719,317.82338365953126 L40.75333761341176,317.27874462451626 L39.92430004085671,316.7195517210455 L39.10514799656772,316.1459752846945 L38.296131002192766,315.55819003240197 L37.497495492145475,314.95637500924994 L36.70948473853875,314.34071353392426 L35.93233877708178,313.71139314287444 L35.16629433396281,313.0686055331879 L34.411584753740044,312.4125465041974 L33.66843992826264,311.74341589783853 L32.93708622664346,311.06141753777604 L32.217746426304814,310.366759167317 L31.51063964511826,309.65965238613046 L30.815981274659265,308.94031258579184 L30.13398291459677,308.2089588841727 L29.46485230823791,307.4658140586953 L28.808793279247396,306.7111044784725 L28.16600566956086,305.94506003535355 L27.536685278511015,305.16791407389655 L26.921023803185363,304.3799033202898 L26.319208780033307,303.58126781024254 L25.731423527740844,302.7722508158676 L25.15784709138981,301.9530987715786 L24.598654187919067,301.1240611990236 L24.054015152904043,300.28539063107814 L23.524095888670843,299.43734253492175 L23.00905781376079,298.5801752342196 L22.50905781376079,297.7141498304352 L22.024248193514467,296.83953012329573 L21.554776630728583,295.95658253043683 L21.100786130989036,295.0655760062485 L20.662414984199955,294.1667819599493 L20.23979672245926,293.26047417291267 L19.833060079383472,292.34692871527005 L19.442328950894193,291.4264238618176 L19.06772235747829,290.4992400072508 L18.709354407932977,289.5656595807536 L18.367334264607308,288.62596695996774 L18.04176611015015,287.6804483843684 L17.732749115775192,286.72939186807326 L17.440377411052452,285.7730871121102 L17.164740055235455,284.8118254161719 L16.905921010132943,283.84589958988283 L16.663999114533283,282.87560386360684 L16.439048060189407,281.90123379882164 L16.231136369371654,280.9230861980878 L16.040327373995098,279.94145901464015 L15.866679196328164,278.95665126162794 L15.71024473128793,277.9689629210328 L15.57107163032785,276.97869485229126 L15.449202286922713,275.9861487006499 L15.344673823655057,274.9916268052816 L15.257518080907403,273.9954321071899 L15.187761607163281,272.9978680569301 L15.135425650920325,271.99923852217546 L15.100526154217818,270.9998476951564 L15.083073747780531,270.0 L15.083073747780531,220.0 L15.083073747780531,10.0 L15.083073747780531,220.0 L135.08307374778053,220.0 L332.04462435022214,254.72963553338607 L144.10610019304045,323.1336641985198 L238.0753622716313,288.931649865953 L246.7577711549778,239.69126221534253 L197.51738350436742,231.00885333199602 L196.5325757513552,230.8352051543291 L195.54488741076005,230.67877068928885 L194.5546193420185,230.53959758832877 L193.5620731903772,230.41772824492364 L192.5675512950089,230.31319978165598 L191.57135659691716,230.22604403890833 L190.57379254665733,230.1562875651642 L189.57516301190276,230.10395160892125 L188.57577218488365,230.06905211221874 L187.57592448972727,230.05159970578148 L186.57592448972727,230.05159970578148 L185.5760767945709,230.06905211221874 L184.57668596755178,230.10395160892125 L183.5780564327972,230.1562875651642 L182.5804923825374,230.22604403890833 L181.58429768444563,230.31319978165598 L180.58977578907735,230.41772824492364 L179.59722963743604,230.53959758832877 L178.6069615686945,230.67877068928885 L177.61927322809933,230.8352051543291 L176.63446547508713,231.00885333199602 L175.65283829163945,231.19966232737255 L174.67469069090566,231.4075740181903 L173.7003206261204,231.63252507253418 L172.7300248998444,231.87444696813384 L171.76409907355537,232.13326601323638 L170.80283737761704,232.40890336905338 L169.846532621654,232.70127507377612 L168.89547610535885,233.01029206815105 L167.94995752975953,233.33586022260823 L167.01026490897362,233.6778803659339 L166.07668448247642,234.03624831547918 L165.14950062790962,234.4108549088951 L164.2289957744572,234.80158603738437 L163.31545031681458,235.20832268046018 L162.40914252977794,235.63094094220088 L161.51034848347877,236.06931208898996 L160.6193419592904,236.5233025887295 L159.73639436643145,236.9927741515154 L158.86177465929205,237.47758377176172 L157.99574925550763,237.97758377176172 L157.13858195480552,238.4926218466718 L156.2905338586491,239.02254111090497 L155.45186329070367,239.56718014592002 L154.62282571814862,240.12637304939074 L153.80367367385963,240.6999494857418 L152.99465667948468,241.28773473803426 L152.1960211694374,241.88954976118632 L151.40801041583066,242.50521123651197 L150.6308644543737,243.13453162756178 L149.86482001125472,243.77731923724832 L149.11011043103196,244.43337826623883 L148.36696560555455,245.1025088725977 L147.6356119039354,245.7845072326602 L146.91627210359673,246.4791656031192 L146.20916532241017,247.18627238430577 L145.5145069519512,247.90561218464438 L144.8325085918887,248.63696588626357 L144.16337798552985,249.38011071174097 L143.50731895653934,250.13482029196373 L142.8645313468528,250.9008647350827 L142.23521095580293,251.67801069653967 L141.6195494804773,252.4660214501464 L141.01773445732525,253.2646569601937 L140.42994920503276,254.07367395456862 L139.85637276868172,254.89282599885763 L139.29717986521098,255.72186357141265 L138.75254083019595,256.5605341393581 L138.22262156596275,257.40858223551453 L137.7075834910527,258.2657495362166 L137.2075834910527,259.13177494000104 L136.72277387080635,260.0063946471405 L136.25330230802047,260.8893422399994 L135.79931180828095,261.78034876418775 L135.36094066149184,262.67914281048695 L134.93832239975114,263.58545059752356 L134.53158575667536,264.4989960551662 L134.14085462818608,265.4195009086186 L133.76624803477017,266.3466847631854 L133.40788008522486,267.2802651896826 L133.0658599418992,268.2199578104685 L132.74029178744203,269.16547638606784 L132.43127479306708,270.11653290236296 L132.13890308834436,271.072837658326 L131.86326573252734,272.0340993542643 L131.60444668742483,273.0000251805534 L131.36252479182514,273.9703209068294 L131.1375737374813,274.9446909716146 L130.9296620466635,275.92283857234844 L130.73885305128698,276.9044657557961 L130.56520487362005,277.8892735088083 L130.4087704085798,278.8769618494034 L130.26959730761973,279.867229918145 L130.1477279642146,280.85977606978634 L130.04319950094694,281.8542979651546 L129.95604375819929,282.8504926632463 L129.88628728445516,283.84805671350614 L129.8339513282122,284.84668624826077 L129.7990518315097,285.8460770752798 L129.78159942507244,286.8459247704362 L129.78159942507244,287.8459247704362 L129.7990518315097,288.84577246559263 L129.8339513282122,289.8451632926117 L129.88628728445516,290.8437928273663 L129.95604375819929,291.84135687762614 L130.04319950094694,292.83755157571784 L130.1477279642146,293.8320734710861 L130.26959730761973,294.8246196227275 L130.4087704085798,295.81488769146904 L130.56520487362005,296.80257603206417 L130.73885305128698,297.7873837850764 L130.9296620466635,298.76901096852407 L131.13757373748126,299.74715856925786 L131.36252479182514,300.72152863404307 L131.6044466874248,301.69182436031906 L131.86326573252734,302.65775018660815 L132.13890308834434,303.6190118825465 L132.43127479306708,304.5753166385095 L132.740291787442,305.5263731548047 L133.0658599418992,306.47189173040397 L133.40788008522486,307.41158435118984 L133.76624803477014,308.34516477768705 L134.14085462818605,309.27234863225385 L134.53158575667533,310.19285348570634 L134.93832239975114,311.1063989433489 L135.36094066149184,312.01270673038556 L135.7993118082809,312.91150077668476 L136.25330230802047,313.8025073008731 L136.72277387080635,314.685454893732 L137.20758349105267,315.5600746008714 L137.70758349105267,316.42610000465584 L138.22262156596273,317.283267305358 L138.75254083019593,318.13131540151437 L139.29717986521095,318.9699859694598 L139.8563727686817,319.7990235420149 L140.42994920503276,320.6181755863039 L141.01773445732522,321.4271925806788 L141.61954948047725,322.22582809072605 L142.23521095580293,323.0138388443328 L142.86453134685274,323.7909848057898 L143.50731895653928,324.55702924890875 L144.1633779855298,325.3117388291315 L144.83250859188865,326.05488365460894 L145.51450695195115,326.78623735622807 L146.20916532241014,327.50557715656674 L146.9162721035967,328.2126839377533 L147.63561190393534,328.90734230821226 L148.36696560555453,329.58934066827476 L149.1101104310319,330.2584712746336 L149.86482001125466,330.91453030362413 L150.63086445437364,331.5573179133107 L151.40801041583063,332.18663830436054 L152.19602116943736,332.8022997796862 L152.99465667948465,333.40411480283825 L153.80367367385958,333.9919000551307 L154.6228257181486,334.5654764914818 L155.4518632907036,335.12466939495255 L156.29053385864904,335.66930842996754 L157.1385819548055,336.1992276942008 L157.99574925550758,336.7142657691108 L158.86177465929202,337.2142657691108 L159.73639436643143,337.6990753893571 L160.61934195929035,338.16854695214306 L161.5103484834787,338.6225374518826 L162.4091425297779,339.06090859867163 L163.31545031681455,339.4835268604123 L164.22899577445713,339.89026350348814 L165.1495006279096,340.2809946319774 L166.07668448247637,340.6556012253933 L167.01026490897357,341.01396917493867 L167.9499575297595,341.3559893182643 L168.8954761053588,341.68155747272147 L169.84653262165398,341.9905744670964 L170.80283737761698,342.28294617181916 L171.76409907355531,342.55858352763613 L172.73002489984438,342.8174025727387 L173.70032062612037,343.05932446833833 L174.6746906909056,343.2842755226822 L175.6528382916394,343.49218721349996 L176.6344654750871,343.6829962088765 L177.6192732280993,343.8566443865434 L178.60090041154695,344.04745338192 L179.57904801228077,344.25536507273773 L180.553418077066,344.4803161270816 L181.523713803342,344.72223802268127 L182.48963962963106,344.9810570677838 L183.4509013255694,345.2566944236008 L184.40720608153242,345.5490661283235 L185.35826259782758,345.8580831226985 L186.3037811734269,346.1836512771556 L187.24347379421278,346.52567142048133 L188.17705422070998,346.8840393700266 L189.10423807527678,347.2586459634425 L190.0247429287292,347.6493770919318 L190.93828838637182,348.05611373500756 L191.84459617340846,348.47873199674825 L192.74339021970763,348.91710314353736 L193.634396743896,349.37109364327694 L194.51734433675495,349.8405652060628 L195.39196404389432,350.32537482630914 L196.25798944767877,350.82537482630914 L197.11515674838088,351.3404129012192 L197.9632048445373,351.8703321654524 L198.80187541248273,352.41497120046745 L199.63091298503775,352.97416410393816 L200.45006502932677,353.5477405402892 L201.2590820237017,354.1355257925817 L202.05771753374898,354.7373408157338 L202.8457282873557,355.3530022910594 L203.6228742488127,355.98232268210927 L204.38891869193168,356.62511029179575 L205.14362827215444,357.28116932078626 L205.88677309763185,357.9502999271451 L206.618126799251,358.6322982872076 L207.33746659958967,359.32695665766664 L208.0445733807762,360.0340634388532 L208.7392317512352,360.7534032391918 L209.4212301112977,361.484756940811 L210.09036071765655,362.22790176628837 L210.74641974664706,362.98261134651113 L211.3892073563336,363.7486557896301 L212.01852774738344,364.5258017510871 L212.6341892227091,365.31381250469383 L213.23600424586115,366.1124480147411 L213.82378949815362,366.9214650091161 L214.39736593450468,367.74061705340506 L214.95655883797542,368.5696546259601 L215.50119787299045,369.4083251939055 L216.03111713722365,370.25637329006196 L216.5461552121337,371.11354059076405 L217.0461552121337,371.9795659945485 L217.53096483238005,372.8541857016879 L218.00043639516593,373.7371332945468 L218.45442689490548,374.62813981873524 L218.89279804169456,375.5269338650344 L219.31541630343526,376.43324165207105 L219.72215294651105,377.3467871097136 L220.11288407500032,378.26729196316603 L220.48749066841623,379.19447581773284 L220.84585861796154,380.12805624423004 L221.1878787612872,381.0677488650159 L221.51344691574437,382.01326744061527 L221.82246391011932,382.96432395691045 L222.11483561484204,383.92062871287345 L222.39047297065906,384.8818904088118 L222.64929201576157,385.8478162351008 L222.89121391136123,386.8181119613768 L223.1161649657051,387.7924820261621 L223.32407665652286,388.77062962689587 L223.51488565189942,389.7522568103435 L223.68853382956632,390.7370645633557 L223.84496829460656,391.7247529039509 L223.98414139556664,392.71502097269246 L224.10601073897178,393.70756712433376 L224.21053920223943,394.70208901970204 L224.2976949449871,395.6982837177938 L224.3674514187312,396.6958477680536 L224.41978737497416,397.6944773028082 L224.45468687167667,398.6938681298273 L224.47213927811396,399.69371582498366 L224.47213927811396,400.69371582498366 L224.45468687167667,401.69356352014006 L224.41978737497416,402.6929543471592 L224.3674514187312,403.69158388191374 L224.2976949449871,404.68914793217357 L224.21053920223943,405.6853426302653 L224.10601073897178,406.6798645256336 L223.98414139556664,407.6724106772749 L223.84496829460656,408.66267874601647 L223.68853382956632,409.6503670866116 L223.51488565189942,410.6351748396238 L223.32407665652286,411.6168020230715 L223.1161649657051,412.5949496238053 L222.89121391136123,413.56931968859055 L222.64929201576157,414.53961541486655 L222.39047297065906,415.5055412411556 L222.11483561484204,416.4668029370939 L221.82246391011932,417.423107693057 L221.51344691574437,418.3741642093521 L221.1878787612872,419.3196827849514 L220.84585861796154,420.25937540573733 L220.48749066841623,421.19295583223453 L220.11288407500032,422.12013968680134 L219.72215294651105,423.04064454025377 L219.31541630343526,423.9541899978964 L218.89279804169456,424.86049778493305 L218.45442689490548,425.7592918312322 L218.00043639516593,426.65029835542055 L217.53096483238005,427.5332459482795 L217.0461552121337,428.4078656554189 L216.5461552121337,429.2738910592033 L216.03111713722365,430.1310583599054 L215.50119787299045,430.97910645606186 L214.95655883797542,431.8177770240073 L214.39736593450468,432.6468145965623 L213.82378949815362,433.4659666408513 L213.23600424586115,434.27498363522625 L212.6341892227091,435.0736191452736 L212.01852774738344,435.8616298988803 L211.3892073563336,436.63877586033726 L210.74641974664706,437.40482030345623 L210.09036071765655,438.159529883679 L209.42123011129772,438.9026747091564 L208.7392317512352,439.63402841077556 L208.04457338077623,440.35336821111423 L207.33746659958967,441.0604749923008 L206.618126799251,441.75513336275975 L205.88677309763185,442.43713172282224 L205.14362827215444,443.1062623291811 L204.38891869193168,443.7623213581716 L203.6228742488127,444.40510896785815 L202.8457282873557,445.034429358908 L202.057717533749,445.65009083423365 L201.25908202370172,446.2519058573857 L200.45006502932677,446.83969110967814 L199.63091298503778,447.4132675460292 L198.80187541248273,447.9724604495 L197.9632048445373,448.51709948451503 L197.11515674838088,449.0470187487482 L196.25798944767877,449.5620568236583 L195.39196404389435,450.0620568236583 L194.51734433675495,450.5468664439046 L193.63439674389602,451.0163380066905 L192.74339021970763,451.47032850643 L191.8445961734085,451.90869965321906 L190.93828838637182,452.33131791495975 L190.0247429287292,452.73805455803557 L189.10423807527678,453.12878568652485 L188.17705422071,453.5033922799407 L187.2434737942128,453.8617602294861 L186.3037811734269,454.2037803728117 L185.35826259782758,454.5293485272689 L184.40720608153242,454.8383655216438 L183.4509013255694,455.1307372263666 L182.48963962963109,455.4063745821836 L181.523713803342,455.6651936272861 L180.553418077066,455.90711552288576 L179.57904801228077,456.13206657722964 L178.60090041154695,456.3399782680474 L177.6192732280993,456.5307872634239 L176.6344654750871,456.7044354410909 L175.64677713449194,456.86086990613114 L174.65650906575036,457.0000430070912 L173.66396291410905,457.12191235049636 L172.66944101874077,457.226440813764 L171.673246320649,457.31359655651164 L170.6756822703892,457.38335303025576 L169.67705273563462,457.4356889864987 L168.67766190861553,457.47058848320125 L167.67781421345916,457.4880408896385 L166.67781421345916,457.4880408896385 L165.67796651830275,457.47058848320125 L164.67857569128364,457.4356889864987 L163.67994615652907,457.38335303025576 L162.68238210626924,457.31359655651164 L161.68618740817752,457.226440813764 L160.69166551280924,457.12191235049636 L159.6991193611679,457.0000430070912 L158.70885129242635,456.86086990613114 L157.72116295183122,456.7044354410909 L108.4807753012208,448.02202655774437 L10.0,430.65720879105135 L206.9615506024416,465.3868443244374 L108.4807753012208,448.02202655774437 L125.84559306791384,349.54125125652354 L224.32636836913463,366.9060690232166 L27.36481776669305,332.1764334898305 " stroke="blue" fill="none" />
</svg>